<svg width="24" height="25" viewBox="0 0 24 25" fill="none" xmlns="http://www.w3.org/2000/svg">
<path d="M15.9844 3.125C15.4102 3.125 14.8242 3.34766 14.3906 3.78125C14.1035 4.06836 13.9248 4.41992 13.8281 4.78906C13.6729 4.75684 13.5205 4.71875 13.3594 4.71875C12.7852 4.71875 12.1992 4.91797 11.7656 5.35156C10.8984 6.21875 10.8984 7.64844 11.7656 8.51562L12.3984 9.14844L8.64844 12.8984L8.01562 12.2656C7.58203 11.832 7.01953 11.6094 6.44531 11.6094C5.87109 11.6094 5.28516 11.832 4.85156 12.2656C4.29199 12.8281 4.10156 13.625 4.26562 14.3516C3.90527 14.4453 3.56543 14.6064 3.28125 14.8906C2.41406 15.7578 2.41406 17.1875 3.28125 18.0547L3.30469 18.0781L4.3125 19.1094L3.79688 19.625L4.875 20.7031L5.39062 20.1875L6.44531 21.2188C7.3125 22.0859 8.74219 22.0859 9.60938 21.2188C9.89062 20.9375 10.0723 20.5947 10.1719 20.2344C10.8926 20.3896 11.6777 20.2051 12.2344 19.6484C13.1016 18.7812 13.1016 17.3516 12.2344 16.4844L11.6016 15.8516L15.3516 12.1016L15.9844 12.7344C16.8516 13.6016 18.2812 13.6016 19.1484 12.7344C19.7021 12.1777 19.8896 11.3926 19.7344 10.6719C20.0977 10.5723 20.4346 10.3936 20.7188 10.1094C21.5859 9.24219 21.5859 7.8125 20.7188 6.94531L19.6875 5.89062L20.2031 5.375L19.125 4.29688L18.6094 4.8125L17.5547 3.78125C17.1211 3.34766 16.5586 3.125 15.9844 3.125ZM15.9844 4.625C16.1719 4.625 16.3535 4.68945 16.5 4.83594L19.6641 8C19.96 8.2959 19.957 8.73828 19.6641 9.03125C19.3711 9.32422 18.9053 9.32422 18.6094 9.03125L15.4688 5.89062C15.1758 5.59766 15.1758 5.13184 15.4688 4.83594C15.6152 4.68945 15.7969 4.625 15.9844 4.625ZM13.3594 6.19531C13.5469 6.19531 13.7285 6.2832 13.875 6.42969L18.0703 10.625C18.3633 10.9209 18.3633 11.3838 18.0703 11.6797C17.7773 11.9727 17.335 11.9492 17.0391 11.6562H17.0156L12.8203 7.46094C12.5273 7.16797 12.5508 6.72559 12.8438 6.42969C12.9873 6.29199 13.1777 6.19531 13.3594 6.19531ZM13.4531 10.2031L14.2969 11.0469L10.5469 14.7969L9.70312 13.9531L13.4531 10.2031ZM6.44531 13.1094C6.63281 13.1094 6.81445 13.1973 6.96094 13.3438H6.98438L11.1797 17.5391C11.4727 17.832 11.4492 18.2744 11.1562 18.5703C10.8633 18.8486 10.415 18.8604 10.125 18.5703L9.60938 18.0547L9.51562 17.9844L6.44531 14.8906L5.92969 14.375C5.63672 14.0791 5.63672 13.6162 5.92969 13.3203C6.07617 13.1738 6.25781 13.1094 6.44531 13.1094ZM4.85156 15.7344C5.03906 15.7344 5.24414 15.8223 5.39062 15.9688L8.53125 19.1094C8.82422 19.4023 8.82422 19.8682 8.53125 20.1641C8.23828 20.457 7.7959 20.457 7.5 20.1641L4.33594 17C4.04004 16.7041 4.04297 16.2617 4.33594 15.9688C4.48242 15.8223 4.66406 15.7344 4.85156 15.7344Z" fill="#94A3B8"/>
</svg>
