<svg width="24" height="24" viewBox="0 0 24 24" fill="none" xmlns="http://www.w3.org/2000/svg">
<path d="M12.7725 19.125H11.2238C10.62 19.125 10.125 18.63 10.125 18.0225V8.2275C10.125 7.62 10.62 7.125 11.2275 7.125H12.7762C13.3837 7.125 13.8787 7.62 13.8787 8.2275V18.0262C13.876 18.3181 13.7583 18.5971 13.5512 18.8028C13.3442 19.0085 13.0644 19.1242 12.7725 19.125Z" fill="#94A3B8"/>
<path d="M12.7725 19.5H11.2238C10.4138 19.5 9.75 18.8363 9.75 18.0225V8.2275C9.75 7.41375 10.4138 6.75 11.2275 6.75H12.7762C13.59 6.75 14.2537 7.41375 14.2537 8.2275V18.0262C14.2508 18.4175 14.0935 18.7918 13.8162 19.0677C13.5388 19.3437 13.1638 19.499 12.7725 19.5ZM11.2275 7.5C10.8263 7.5 10.5 7.82625 10.5 8.2275V18.0262C10.5 18.4275 10.8263 18.7537 11.2275 18.7537H12.7762C13.1775 18.7537 13.5037 18.4275 13.5037 18.0262V8.2275C13.5037 7.82625 13.1775 7.5 12.7762 7.5H11.2275Z" fill="#94A3B8"/>
<path d="M13.875 22.125H10.125V20.3325C10.125 19.665 10.665 19.125 11.3325 19.125H12.6675C13.335 19.125 13.875 19.665 13.875 20.3325V22.125Z" fill="#94A3B8"/>
<path d="M13.875 22.5H10.125C9.91875 22.5 9.75 22.3312 9.75 22.125V20.3325C9.75 19.9128 9.91673 19.5103 10.2135 19.2135C10.5103 18.9167 10.9128 18.75 11.3325 18.75H12.6675C13.0872 18.75 13.4897 18.9167 13.7865 19.2135C14.0833 19.5103 14.25 19.9128 14.25 20.3325V22.125C14.25 22.3312 14.0813 22.5 13.875 22.5ZM10.5 21.75H13.5V20.3325C13.5 19.875 13.125 19.5 12.6675 19.5H11.3325C10.875 19.5 10.5 19.875 10.5 20.3325V21.75Z" fill="#94A3B8"/>
<path d="M13.125 7.5H10.875C10.6687 7.5 10.5 7.33125 10.5 7.125V5.625C10.5 5.41875 10.6687 5.25 10.875 5.25H13.125C13.3312 5.25 13.5 5.41875 13.5 5.625V7.125C13.5 7.33125 13.3312 7.5 13.125 7.5ZM11.25 6.75H12.75V6H11.25V6.75Z" fill="#94A3B8"/>
<path d="M19.5 9H18C17.7937 9 17.625 8.83125 17.625 8.625V6H6.375V8.625C6.375 8.83125 6.20625 9 6 9H4.5C4.29375 9 4.125 8.83125 4.125 8.625V4.125C4.125 3.91875 4.29375 3.75 4.5 3.75H19.5C19.7063 3.75 19.875 3.91875 19.875 4.125V8.625C19.875 8.83125 19.7063 9 19.5 9ZM18.375 8.25H19.125V4.5H4.875V8.25H5.625V5.625C5.625 5.41875 5.79375 5.25 6 5.25H18C18.2063 5.25 18.375 5.41875 18.375 5.625V8.25Z" fill="#94A3B8"/>
<path d="M15.375 4.5H8.625C8.41875 4.5 8.25 4.33125 8.25 4.125V2.98875C8.25 2.1675 8.9175 1.5 9.73875 1.5H14.2612C15.0825 1.5 15.75 2.1675 15.75 2.98875V4.125C15.75 4.33125 15.5813 4.5 15.375 4.5ZM9 3.75H15V2.98875C15 2.58 14.67 2.25 14.2612 2.25H9.73875C9.33 2.25 9 2.58 9 2.98875V3.75Z" fill="#94A3B8"/>
<path d="M7.125 9.65625V14.625C7.125 15.2475 6.6225 15.75 6 15.75H4.5V8.625H6.09375C6.66375 8.625 7.125 9.08625 7.125 9.65625Z" fill="#94A3B8"/>
<path d="M6 16.125H4.5C4.29375 16.125 4.125 15.9563 4.125 15.75V8.625C4.125 8.41875 4.29375 8.25 4.5 8.25H6.09375C6.87 8.25 7.5 8.88 7.5 9.65625V14.625C7.5 15.4538 6.82875 16.125 6 16.125ZM4.875 15.375H6C6.4125 15.375 6.75 15.0375 6.75 14.625V9.65625C6.75 9.29625 6.45375 9 6.09375 9H4.875V15.375Z" fill="#94A3B8"/>
<path d="M19.5 8.625V15.75H18C17.3775 15.75 16.875 15.2475 16.875 14.625V9.75C16.875 9.1275 17.3775 8.625 18 8.625H19.5Z" fill="#94A3B8"/>
<path d="M19.5 16.125H18C17.1712 16.125 16.5 15.4537 16.5 14.625V9.75C16.5 8.92125 17.1712 8.25 18 8.25H19.5C19.7063 8.25 19.875 8.41875 19.875 8.625V15.75C19.875 15.9563 19.7063 16.125 19.5 16.125ZM18 9C17.5875 9 17.25 9.3375 17.25 9.75V14.625C17.25 15.0375 17.5875 15.375 18 15.375H19.125V9H18ZM12 6C11.7937 6 11.625 5.83125 11.625 5.625V4.125C11.625 3.91875 11.7937 3.75 12 3.75C12.2063 3.75 12.375 3.91875 12.375 4.125V5.625C12.375 5.83125 12.2063 6 12 6Z" fill="#94A3B8"/>
</svg>
