<svg width="32" height="33" viewBox="0 0 32 33" fill="none" xmlns="http://www.w3.org/2000/svg">
<path fill-rule="evenodd" clip-rule="evenodd" d="M0 16.3322C0 15.6613 0.543886 15.1174 1.2148 15.1174H22.2714C22.9423 15.1174 23.4862 15.6613 23.4862 16.3322C23.4862 17.0031 22.9423 17.547 22.2714 17.547H1.2148C0.543886 17.547 0 17.0031 0 16.3322Z" fill="black"/>
<path fill-rule="evenodd" clip-rule="evenodd" d="M14.9331 7.37442C15.4075 6.90001 16.1767 6.90001 16.6511 7.37442L24.6352 15.3586C25.1729 15.8962 25.1729 16.768 24.6352 17.3056L16.6511 25.2898C16.1767 25.7642 15.4075 25.7642 14.9331 25.2898C14.4587 24.8154 14.4587 24.0462 14.9331 23.5718L22.1728 16.3321L14.9331 9.09241C14.4587 8.618 14.4587 7.84883 14.9331 7.37442Z" fill="black"/>
<path fill-rule="evenodd" clip-rule="evenodd" d="M21.5962 1.21475C21.5962 0.543828 22.1401 -5.72205e-05 22.811 -5.72205e-05H30.2078C30.9682 -5.72205e-05 31.5846 0.61635 31.5846 1.37672V31.2879C31.5846 32.0482 30.9682 32.6646 30.2078 32.6646H21.7312C21.0602 32.6646 20.5164 32.1207 20.5164 31.4498C20.5164 30.7789 21.0602 30.235 21.7312 30.235H29.155V2.42955H22.811C22.1401 2.42955 21.5962 1.88566 21.5962 1.21475Z" fill="black"/>
</svg>
