<svg width="24" height="25" viewBox="0 0 24 25" fill="none" xmlns="http://www.w3.org/2000/svg">
<g clip-path="url(#clip0_15_138)">
<path d="M22.8364 17.053C22.9786 16.5857 22.7147 16.0905 22.2477 15.9483L22.2476 15.9483L16.9694 14.3395L16.9714 14.3306C16.871 14.2947 16.7427 14.2238 16.6225 14.0859L14.4637 11.6096C14.4636 11.6095 14.4635 11.6095 14.4635 11.6094C14.3526 11.4832 14.2078 11.3913 14.046 11.3443C14.0459 11.3442 14.0458 11.3442 14.0458 11.3442L7.56789 9.47256C6.93809 9.29068 6.58155 9.57713 6.50983 9.79372L6.50982 9.79372L5.21007 13.7185L5.20978 13.7193C5.18612 13.7899 5.1498 13.8574 5.10075 13.9172C5.10061 13.9174 5.10046 13.9175 5.10031 13.9177L2.44452 17.1756L2.44415 17.1761C2.26667 17.3927 2.29847 17.7129 2.51508 17.8904C2.73179 18.0678 3.05209 18.0359 3.2296 17.8192L6.01055 14.4236C6.01059 14.4235 6.01062 14.4235 6.01065 14.4235C6.05019 14.375 6.08032 14.3202 6.09993 14.261C6.09993 14.261 6.09994 14.261 6.09995 14.261L6.9294 11.7566C7.03775 11.4291 7.3915 11.251 7.71929 11.3599M22.8364 17.053L7.8785 12.0709L8.11576 12.1497C8.22458 11.822 8.04666 11.4683 7.71929 11.3599M22.8364 17.053C22.6939 17.5204 22.1986 17.7842 21.7314 17.6418L21.7314 17.6417L16.0394 15.907L16.0392 15.9069C15.8811 15.8589 15.7394 15.767 15.6302 15.6421L22.8364 17.053ZM7.71929 11.3599L7.6405 11.5971L7.71901 11.3598C7.7191 11.3598 7.71919 11.3598 7.71929 11.3599ZM13.4249 13.1124L15.63 15.6419L13.4249 13.1124ZM13.4249 13.1124C13.4011 13.085 13.3691 13.0521 13.3289 13.0233L13.3348 12.9817L13.1264 12.9215L9.00339 11.7302C8.67157 11.6343 8.32515 11.826 8.22935 12.1572L8.22927 12.1574C8.13391 12.4885 8.32476 12.8355 8.65655 12.9311M13.4249 13.1124L7.28659 14.6539C7.21898 14.8582 7.11434 15.0486 6.97785 15.2151L4.19667 18.6113L4.19666 18.6113C3.5819 19.3619 2.47393 19.472 1.72317 18.8576L1.72309 18.8575C0.972642 18.2429 0.862368 17.1348 1.4761 16.3848C1.47616 16.3847 1.47623 16.3846 1.47629 16.3845L4.05965 13.2163L5.32315 9.40087C5.32316 9.40084 5.32317 9.40082 5.32317 9.40079C5.58142 8.62022 6.55516 7.8789 7.91464 8.2717L14.3939 10.1437L14.3942 10.1438C14.7843 10.257 15.134 10.479 15.4022 10.784L15.4029 10.7848L17.5051 13.1961L22.6119 14.7525C23.7392 15.096 24.3756 16.2901 24.0319 17.4175C23.6884 18.5449 22.4944 19.181 21.3669 18.8375L21.3669 18.8375L15.6752 17.1028C15.6752 17.1028 15.6752 17.1028 15.6751 17.1028C15.2925 16.9864 14.9505 16.7647 14.6881 16.4634C14.688 16.4634 14.688 16.4634 14.688 16.4634L12.6027 14.0714L8.65655 12.9311M8.65655 12.9311L8.65635 12.9311L8.72575 12.6909L8.65655 12.9311ZM2.47675 5.74463C1.04068 5.74463 -0.125 6.91031 -0.125 8.34638C-0.125 9.78245 1.04068 10.9481 2.47675 10.9481C3.91259 10.9481 5.07825 9.78243 5.07825 8.34638C5.07825 6.91033 3.91259 5.74463 2.47675 5.74463ZM2.47675 6.99463C3.22263 6.99463 3.82825 7.6004 3.82825 8.34638C3.82825 9.09236 3.22263 9.69813 2.47675 9.69813C1.73082 9.69813 1.125 9.09231 1.125 8.34638C1.125 7.60045 1.73082 6.99463 2.47675 6.99463Z" fill="#94A3B8" stroke="#94A3B8" stroke-width="0.5"/>
<path fill-rule="evenodd" clip-rule="evenodd" d="M0.5 19.0052H23.4527C23.6597 19.0052 23.8277 18.8372 23.8277 18.6302C23.8277 18.4232 23.6597 18.2552 23.4527 18.2552H0.5C0.293 18.2552 0.125 18.4232 0.125 18.6302C0.125 18.8372 0.293 19.0052 0.5 19.0052ZM7.3725 13.5994L8.18425 11.1479C8.24925 10.9514 8.14275 10.7392 7.94625 10.6742C7.74975 10.6089 7.53725 10.7157 7.47225 10.9122L6.6605 13.3637C6.5955 13.5599 6.702 13.7724 6.8985 13.8374C7.095 13.9024 7.3075 13.7959 7.3725 13.5994Z" fill="#94A3B8"/>
</g>
<defs>
<clipPath id="clip0_15_138">
<rect width="24" height="24" fill="white" transform="translate(0 0.5)"/>
</clipPath>
</defs>
</svg>
