<svg width="150" height="122" viewBox="0 0 150 122" fill="none" xmlns="http://www.w3.org/2000/svg">
<g clip-path="url(#clip0_18_213)">
<g clip-path="url(#clip1_18_213)">
<g clip-path="url(#clip2_18_213)">
<g clip-path="url(#clip3_18_213)">
<g clip-path="url(#clip4_18_213)">
<g clip-path="url(#clip5_18_213)">
<g clip-path="url(#clip6_18_213)">
<path d="M17.5087 102.442V112.388C17.5087 112.727 17.4337 112.962 17.2837 113.092C17.1386 113.222 16.8871 113.287 16.5291 113.287H12.8794C12.5263 113.287 12.2772 113.222 12.1321 113.092C11.9821 112.962 11.9072 112.727 11.9072 112.388V103.328C11.9072 102.091 11.6363 101.189 11.0945 100.621C10.5479 100.054 9.81024 99.7705 8.8815 99.7705C7.94792 99.7705 7.2296 99.9634 6.72653 100.349C6.22346 100.735 5.83648 101.221 5.5656 101.807V112.388C5.5656 112.727 5.49304 112.962 5.34792 113.092C5.19797 113.222 4.94644 113.287 4.59332 113.287H0.943652C0.590536 113.287 0.339002 113.222 0.189049 113.092C0.0439325 112.962 -0.0286255 112.727 -0.0286255 112.388V98.1175C-0.0286255 97.8431 0.0294209 97.6316 0.145514 97.4828C0.392211 97.1666 0.689699 96.8434 1.03798 96.5133C1.38626 96.1832 1.81435 95.8321 2.32225 95.4601C2.47705 95.3439 2.62458 95.2858 2.76486 95.2858C2.89546 95.2858 3.043 95.3439 3.20746 95.4601C3.70569 95.8321 4.13137 96.1901 4.48448 96.5342C4.8376 96.8736 5.15202 97.2247 5.42774 97.5874H5.51481C5.71313 97.3363 6.01304 97.0434 6.41453 96.7086C6.81602 96.3738 7.37955 96.0762 8.10513 95.8158C8.83555 95.5554 9.76671 95.4252 10.8986 95.4252C12.0063 95.4252 13.0633 95.6415 14.0694 96.0739C15.0707 96.5063 15.8954 97.2317 16.5436 98.25C17.187 99.2729 17.5087 100.67 17.5087 102.442ZM26.9775 113.713C25.2458 113.713 23.8672 113.246 22.8417 112.311C21.821 111.372 21.3107 110.079 21.3107 108.433C21.3107 107.582 21.4727 106.792 21.7968 106.062C22.1258 105.327 22.6941 104.678 23.5019 104.116C24.3098 103.553 25.4417 103.102 26.8977 102.763C28.3585 102.423 30.2232 102.226 32.4919 102.17C32.4919 101.137 32.2234 100.394 31.6865 99.9379C31.1496 99.4822 30.3417 99.2543 29.2631 99.2543C28.2956 99.2543 27.5047 99.4148 26.8904 99.7356C26.2761 100.052 25.8939 100.266 25.744 100.377C25.5747 100.517 25.3739 100.568 25.1418 100.531C24.8225 100.489 24.4815 100.41 24.1187 100.294C23.7607 100.182 23.3738 100.052 22.9578 99.903C22.8997 99.8797 22.8344 99.8425 22.7619 99.7914C22.6941 99.7402 22.653 99.6635 22.6385 99.5612C22.6385 99.5054 22.6458 99.4357 22.6603 99.352C22.6699 99.2636 22.699 99.1079 22.7473 98.8847C22.7957 98.6568 22.8659 98.3755 22.9578 98.0407C23.0545 97.706 23.144 97.4479 23.2262 97.2666C23.3326 97.0713 23.5092 96.8899 23.7559 96.7225C23.9591 96.5598 24.5685 96.3041 25.5844 95.9553C26.6002 95.6019 28.0707 95.4252 29.9959 95.4252C35.2975 95.4252 37.9482 97.9059 37.9482 102.867V112.506C37.9482 112.72 37.8854 112.904 37.7596 113.057C37.6338 113.211 37.4234 113.287 37.1283 113.287H34.4727C34.2841 113.287 34.1172 113.262 33.9721 113.211C33.8221 113.16 33.6818 113.06 33.5512 112.911L32.4556 111.551H32.3323C31.7857 112.313 31.0552 112.864 30.141 113.204C29.2268 113.543 28.1723 113.713 26.9775 113.713ZM28.9293 109.765C30.0177 109.765 30.8376 109.498 31.389 108.963C31.9453 108.428 32.3008 107.877 32.4556 107.31V105.42C30.8158 105.42 29.5847 105.543 28.7624 105.79C27.9401 106.031 27.3935 106.348 27.1226 106.738C26.8517 107.133 26.7163 107.557 26.7163 108.008C26.7163 108.668 26.9291 109.126 27.3548 109.382C27.7805 109.637 28.3053 109.765 28.9293 109.765ZM47.7726 113.713C46.5101 113.713 45.4628 113.611 44.6308 113.406C43.7988 113.201 43.1313 112.955 42.6282 112.667C42.1252 112.378 41.7334 112.113 41.4528 111.872C41.24 111.681 41.2158 111.467 41.3802 111.23L43.1869 108.656C43.4482 108.294 43.7432 108.27 44.0721 108.586C44.4156 108.907 44.88 109.216 45.4653 109.514C46.0506 109.816 46.7786 109.967 47.6493 109.967C48.428 109.967 49.069 109.84 49.572 109.584C50.0751 109.328 50.3266 108.956 50.3266 108.468C50.3266 108.128 50.2154 107.849 49.9929 107.631C49.7655 107.417 49.3689 107.196 48.8029 106.968C48.237 106.74 47.4461 106.452 46.4303 106.103C44.9307 105.578 43.7964 104.948 43.0273 104.213C42.2582 103.474 41.8736 102.395 41.8736 100.977C41.8736 99.6705 42.2485 98.608 42.9983 97.7897C43.7529 96.9759 44.7155 96.3784 45.8861 95.9972C47.0615 95.6159 48.2878 95.4252 49.5648 95.4252C51.1853 95.4252 52.322 95.5694 52.975 95.8577C53.628 96.146 54.0513 96.3715 54.2448 96.5342C54.4189 96.6784 54.5423 96.8481 54.6148 97.0434C54.7696 97.4851 54.8881 98.0686 54.9704 98.794C55.0139 99.2171 54.9002 99.4961 54.6293 99.631C54.4891 99.71 54.2641 99.796 53.9545 99.889C53.6498 99.9774 53.3451 100.056 53.0403 100.126C52.7307 100.191 52.4986 100.224 52.3438 100.224C52.3002 100.224 52.2519 100.21 52.1986 100.182C52.1454 100.154 52.0535 100.084 51.9229 99.9727C51.7681 99.8239 51.5045 99.6542 51.132 99.4636C50.7596 99.2683 50.2492 99.1706 49.6011 99.1706C48.9626 99.1706 48.428 99.2706 47.9975 99.4706C47.567 99.6705 47.3518 100.019 47.3518 100.517C47.3518 101.061 47.6251 101.47 48.1717 101.744C48.7231 102.014 49.6301 102.365 50.8926 102.797C51.8842 103.128 52.7501 103.488 53.4902 103.879C54.2254 104.269 54.7938 104.781 55.1953 105.413C55.5968 106.041 55.7975 106.889 55.7975 107.959C55.7975 109.344 55.4057 110.46 54.6221 111.307C53.8385 112.148 52.8347 112.76 51.6109 113.141C50.3871 113.522 49.1077 113.713 47.7726 113.713ZM70.5341 95.4252C72.2609 95.4252 73.6831 95.7972 74.8005 96.5412C75.913 97.2852 76.745 98.3058 77.2965 99.6031C77.8431 100.905 78.1164 102.395 78.1164 104.074C78.1164 105.892 77.7947 107.526 77.1514 108.977C76.508 110.432 75.5599 111.586 74.3071 112.436C73.0591 113.287 71.5063 113.713 69.6488 113.713C68.6959 113.713 67.9075 113.608 67.2835 113.399C66.6643 113.19 66.1685 112.939 65.796 112.646C65.4236 112.357 65.1309 112.095 64.9181 111.858H64.8528V119.111C64.8528 119.386 64.7923 119.595 64.6714 119.739C64.178 120.367 63.4524 121.043 62.4946 121.769C62.3302 121.88 62.1826 121.936 62.052 121.936C61.9117 121.936 61.7642 121.88 61.6094 121.769C61.1015 121.392 60.6734 121.039 60.3251 120.708C59.9769 120.383 59.6794 120.06 59.4327 119.739C59.3118 119.595 59.2513 119.386 59.2513 119.111V98.1175C59.2513 97.8431 59.3118 97.6316 59.4327 97.4828C59.6794 97.1666 59.9769 96.8434 60.3251 96.5133C60.6734 96.1832 61.1015 95.8321 61.6094 95.4601C61.7642 95.3439 61.9238 95.2858 62.0883 95.2858C62.2431 95.2858 62.4027 95.3439 62.5672 95.4601C63.0606 95.8321 63.4863 96.1901 63.8442 96.5342C64.1973 96.8736 64.5093 97.2247 64.7802 97.5874H64.8673C65.0704 97.3503 65.3776 97.062 65.7888 96.7225C66.2048 96.3784 66.7925 96.0762 67.5519 95.8158C68.3114 95.5554 69.3054 95.4252 70.5341 95.4252ZM68.3573 109.368C69.6343 109.368 70.6236 108.94 71.3249 108.084C72.0263 107.229 72.377 105.99 72.377 104.367C72.377 101.303 71.0662 99.7705 68.4444 99.7705C67.3367 99.7705 66.5168 99.989 65.9847 100.426C65.4526 100.863 65.0753 101.323 64.8528 101.807V105.504C64.8528 106.606 65.1478 107.526 65.738 108.266C66.3281 109 67.2012 109.368 68.3573 109.368ZM90.6254 113.713C87.6457 113.713 85.2899 112.953 83.5582 111.432C81.8217 109.912 80.9534 107.647 80.9534 104.639C80.9534 101.551 81.8531 99.2427 83.6525 97.7129C85.452 96.1878 87.8585 95.4252 90.8721 95.4252C93.7744 95.4252 96.1011 96.1762 97.8522 97.6781C99.5984 99.1846 100.472 101.403 100.472 104.332C100.472 107.387 99.5984 109.714 97.8522 111.314C96.1011 112.913 93.6922 113.713 90.6254 113.713ZM90.7995 109.591C92.1007 109.591 93.0803 109.203 93.7381 108.426C94.4008 107.65 94.7322 106.317 94.7322 104.43C94.7322 102.639 94.3984 101.377 93.7309 100.642C93.0633 99.9123 92.0741 99.5473 90.7632 99.5473C89.5007 99.5473 88.5067 99.9402 87.7811 100.726C87.0555 101.516 86.6927 102.797 86.6927 104.569C86.6927 106.42 87.0386 107.719 87.7303 108.468C88.4172 109.216 89.4403 109.591 90.7995 109.591ZM109.875 97.8245V99.0869H109.948C110.833 96.7249 112.427 95.5438 114.729 95.5438C115.024 95.5438 115.266 95.5578 115.455 95.5857C115.643 95.6136 115.774 95.6391 115.847 95.6624C116.026 95.7182 116.115 95.8484 116.115 96.053V100.161C116.115 100.51 115.902 100.605 115.477 100.447C115.331 100.391 115.128 100.333 114.867 100.273C114.601 100.208 114.231 100.175 113.757 100.175C112.538 100.175 111.587 100.603 110.905 101.458C110.218 102.319 109.875 103.486 109.875 104.96V112.388C109.875 112.727 109.802 112.962 109.657 113.092C109.507 113.222 109.256 113.287 108.903 113.287H105.253C104.9 113.287 104.648 113.222 104.498 113.092C104.353 112.962 104.281 112.727 104.281 112.388V98.1175C104.281 97.8431 104.339 97.6316 104.455 97.4828C104.702 97.1666 104.999 96.8434 105.347 96.5133C105.701 96.1832 106.129 95.8321 106.632 95.4601C106.728 95.3904 106.825 95.3439 106.922 95.3206C107.014 95.2974 107.096 95.2858 107.169 95.2858C107.333 95.2858 107.498 95.3439 107.662 95.4601C108.644 96.1994 109.328 96.8295 109.715 97.3503C109.822 97.4851 109.875 97.6432 109.875 97.8245ZM125.925 113.713C121.983 113.713 120.011 111.744 120.011 107.805V99.8193H118.009C117.651 99.8193 117.404 99.7472 117.269 99.6031C117.133 99.4636 117.066 99.2241 117.066 98.8847V96.7853C117.066 96.4459 117.133 96.2064 117.269 96.0669C117.404 95.9228 117.651 95.8507 118.009 95.8507H120.011V93.1097C120.011 92.8353 120.069 92.6261 120.186 92.4819C120.679 91.8542 121.404 91.1777 122.362 90.4523C122.527 90.3407 122.674 90.2849 122.805 90.2849C122.95 90.2849 123.093 90.3407 123.233 90.4523C123.741 90.8289 124.169 91.18 124.517 91.5055C124.866 91.8356 125.163 92.1611 125.41 92.4819C125.531 92.6261 125.591 92.8353 125.591 93.1097V95.8507H128.726C129.079 95.8507 129.323 95.9228 129.458 96.0669C129.594 96.2064 129.662 96.4459 129.662 96.7853V98.8847C129.662 99.2241 129.594 99.4636 129.458 99.6031C129.323 99.7472 129.079 99.8193 128.726 99.8193H125.591V106.871C125.591 108.684 126.276 109.591 127.644 109.591C127.857 109.591 128.051 109.572 128.225 109.535C128.404 109.493 128.559 109.449 128.689 109.402C128.936 109.314 129.11 109.282 129.212 109.305C129.313 109.328 129.405 109.451 129.487 109.674L130.511 112.318C130.617 112.602 130.547 112.806 130.3 112.932C130.121 113.011 129.693 113.16 129.016 113.378C128.339 113.601 127.308 113.713 125.925 113.713ZM142.359 113.713C140.366 113.713 138.632 113.404 137.157 112.785C135.677 112.167 134.53 111.204 133.718 109.898C132.9 108.591 132.491 106.906 132.491 104.841C132.491 101.744 133.319 99.4008 134.973 97.8106C136.627 96.2204 138.823 95.4252 141.561 95.4252C143.346 95.4252 144.855 95.7321 146.089 96.3459C147.322 96.9597 148.261 97.8059 148.904 98.8847C149.547 99.9634 149.869 101.193 149.869 102.574C149.869 103.927 149.511 104.871 148.795 105.406C148.074 105.936 147.022 106.201 145.639 106.201H138.042C138.134 107.373 138.579 108.266 139.377 108.879C140.175 109.493 141.259 109.8 142.628 109.8C143.716 109.8 144.587 109.642 145.24 109.326C145.898 109.014 146.355 108.768 146.611 108.586C146.839 108.428 147.092 108.354 147.373 108.363C147.6 108.363 147.922 108.407 148.338 108.496C148.759 108.579 149.175 108.735 149.586 108.963C149.881 109.112 150.029 109.316 150.029 109.577C150.029 109.726 150 109.935 149.942 110.205C149.908 110.363 149.85 110.593 149.767 110.895C149.685 111.197 149.579 111.479 149.448 111.739C149.376 111.865 149.262 111.983 149.107 112.095C148.875 112.253 148.495 112.462 147.968 112.722C147.441 112.987 146.722 113.218 145.813 113.413C144.904 113.613 143.752 113.713 142.359 113.713ZM138.006 102.714H143.781C144.381 102.714 144.681 102.446 144.681 101.912C144.681 101.107 144.417 100.428 143.89 99.8751C143.368 99.3264 142.582 99.0521 141.532 99.0521C140.386 99.0521 139.544 99.4031 139.007 100.105C138.47 100.812 138.136 101.682 138.006 102.714Z" fill="#6855FF"/>
</g>
</g>
</g>
</g>
<g clip-path="url(#clip7_18_213)">
<g clip-path="url(#clip8_18_213)">
<path d="M117.647 38.9731L113.233 31.5486V23.3286C113.233 21.4725 112.222 19.7931 110.567 18.8209L103.119 14.6667L98.7055 7.33061C97.786 5.73965 95.947 4.76739 94.0161 4.76739H85.1889L77.6491 0.613218C75.994 -0.270649 73.8791 -0.270649 72.2241 0.613218L64.6842 4.76739H56.041C54.11 4.76739 52.363 5.73965 51.3515 7.33061L47.0299 14.4899L39.3062 18.7325C37.6511 19.6164 36.6396 21.3841 36.6396 23.2402V31.7253L32.41 38.7963C31.9502 39.5918 31.6744 40.4756 31.6744 41.3595C31.6744 42.2434 31.9502 43.1272 32.41 43.9227L36.6396 50.9936V59.4788C36.6396 61.3349 37.6511 63.0142 39.3062 63.9865L47.0299 68.2291L51.3515 75.3884C52.271 76.9793 54.11 77.9516 56.041 77.9516H64.6842L72.2241 82.1058C73.0516 82.5477 73.9711 82.8129 74.8906 82.8129C75.8101 82.8129 76.7296 82.5477 77.5571 82.1058L85.097 77.9516H93.9241C95.855 77.9516 97.6021 76.9793 98.6135 75.3884L103.027 68.0523L110.475 63.8981C112.13 63.0142 113.142 61.2465 113.142 59.3904V51.1704L117.555 43.7459C118.567 42.5085 118.567 40.564 117.647 38.9731ZM100.361 44.7182V47.7233C100.361 49.2259 99.0733 50.5517 97.4182 50.5517C96.7745 50.5517 96.2228 50.3749 95.7631 50.0214V51.4356C95.7631 52.9382 94.4758 54.264 92.8207 54.264C91.2576 54.264 89.8783 53.0265 89.8783 51.4356V44.9834H60.0867V51.4356C60.0867 52.9382 58.7994 54.264 57.1444 54.264C55.5812 54.264 54.202 53.0265 54.202 51.4356V50.1982C53.7422 50.4633 53.2825 50.5517 52.7308 50.5517C51.1676 50.5517 49.7884 49.3143 49.7884 47.7233V44.8066C48.5931 44.453 47.6736 43.3924 47.6736 42.155C47.6736 40.8292 48.5931 39.7685 49.7884 39.5034V36.0563C49.7884 34.5537 51.0757 33.2279 52.7308 33.2279C53.2825 33.2279 53.7422 33.4047 54.202 33.5815V32.3441C54.202 30.8415 55.4893 29.5157 57.1444 29.5157C58.7075 29.5157 60.0867 30.7531 60.0867 32.3441V39.3266H89.8783V32.3441C89.8783 30.8415 91.1656 29.5157 92.8207 29.5157C94.3839 29.5157 95.7631 30.7531 95.7631 32.3441V33.7582C96.2228 33.4047 96.8665 33.2279 97.4182 33.2279C98.9813 33.2279 100.361 34.4653 100.361 36.0563V39.5918C101.464 39.9453 102.292 41.0059 102.292 42.2434C102.292 43.304 101.464 44.2763 100.361 44.7182Z" fill="#6855FF"/>
</g>
</g>
</g>
</g>
</g>
<defs>
<clipPath id="clip0_18_213">
<rect width="150" height="121.887" fill="white"/>
</clipPath>
<clipPath id="clip1_18_213">
<rect width="150.057" height="121.986" fill="white" transform="translate(-0.0286255 -0.0496826)"/>
</clipPath>
<clipPath id="clip2_18_213">
<rect width="150.057" height="121.986" fill="white" transform="translate(-0.0286255 -0.0496826)"/>
</clipPath>
<clipPath id="clip3_18_213">
<rect width="150.057" height="31.6511" fill="white" transform="translate(-0.0286255 90.2849)"/>
</clipPath>
<clipPath id="clip4_18_213">
<rect width="150.057" height="31.6511" fill="white" transform="translate(-0.0286255 90.2849)"/>
</clipPath>
<clipPath id="clip5_18_213">
<rect width="150.057" height="31.6511" fill="white" transform="translate(-0.0286255 90.2849)"/>
</clipPath>
<clipPath id="clip6_18_213">
<rect width="150.057" height="31.6511" fill="white" transform="translate(-0.0286255 90.2849)"/>
</clipPath>
<clipPath id="clip7_18_213">
<rect width="86.6512" height="82.8625" fill="white" transform="translate(31.6744 -0.0496826)"/>
</clipPath>
<clipPath id="clip8_18_213">
<rect width="86.6512" height="82.8625" fill="white" transform="translate(31.6744 -0.0496826)"/>
</clipPath>
</defs>
</svg>
