<svg width="25" height="25" viewBox="0 0 25 25" fill="none" xmlns="http://www.w3.org/2000/svg">
<path d="M20.1 22.6486H18.1V20.6486C18.1 18.9917 16.7569 17.6486 15.1 17.6486H9.10004C7.44319 17.6486 6.10004 18.9917 6.10004 20.6486V22.6486H4.10004V20.6486C4.10004 17.8872 6.33862 15.6486 9.10004 15.6486H15.1C17.8614 15.6486 20.1 17.8872 20.1 20.6486V22.6486ZM12.1 13.6486C8.78633 13.6486 6.10004 10.9623 6.10004 7.64856C6.10004 4.33485 8.78633 1.64856 12.1 1.64856C15.4137 1.64856 18.1 4.33485 18.1 7.64856C18.1 10.9623 15.4137 13.6486 12.1 13.6486ZM12.1 11.6486C14.3091 11.6486 16.1 9.8577 16.1 7.64856C16.1 5.43942 14.3091 3.64856 12.1 3.64856C9.8909 3.64856 8.10004 5.43942 8.10004 7.64856C8.10004 9.8577 9.8909 11.6486 12.1 11.6486Z" fill="#CBD5E1"/>
</svg>
