<svg width="17" height="21" viewBox="0 0 17 21" fill="none" xmlns="http://www.w3.org/2000/svg">
<path d="M16.1 21H14.1V19C14.1 17.3431 12.7569 16 11.1 16H5.10001C3.44316 16 2.10001 17.3431 2.10001 19V21H0.100006V19C0.100006 16.2386 2.33859 14 5.10001 14H11.1C13.8614 14 16.1 16.2386 16.1 19V21ZM8.10001 12C4.7863 12 2.10001 9.3137 2.10001 6C2.10001 2.68629 4.7863 0 8.10001 0C11.4137 0 14.1 2.68629 14.1 6C14.1 9.3137 11.4137 12 8.10001 12ZM8.10001 10C10.3091 10 12.1 8.20914 12.1 6C12.1 3.79086 10.3091 2 8.10001 2C5.89087 2 4.10001 3.79086 4.10001 6C4.10001 8.20914 5.89087 10 8.10001 10Z" fill="#CBD5E1"/>
</svg>
