<svg width="21" height="20" viewBox="0 0 21 20" fill="none" xmlns="http://www.w3.org/2000/svg">
<path d="M7.70001 0V2H13.7V0H15.7V2H19.7C20.2523 2 20.7 2.44772 20.7 3V19C20.7 19.5523 20.2523 20 19.7 20H1.70001C1.14773 20 0.700012 19.5523 0.700012 19V3C0.700012 2.44772 1.14773 2 1.70001 2H5.70001V0H7.70001ZM18.7 10H2.70001V18H18.7V10ZM6.70001 12V14H4.70001V12H6.70001ZM11.7 12V14H9.70001V12H11.7ZM16.7 12V14H14.7V12H16.7ZM5.70001 4H2.70001V8H18.7V4H15.7V6H13.7V4H7.70001V6H5.70001V4Z" fill="#CBD5E1"/>
</svg>
