<svg width="26" height="20" viewBox="0 0 26 20" fill="none" xmlns="http://www.w3.org/2000/svg">
<path d="M25.2814 10.5186L25.2813 10.5186L25.2853 10.5202C25.3415 10.5429 25.3709 10.5706 25.3827 10.5861C25.3836 10.5872 25.3843 10.5883 25.385 10.5892C25.3836 10.5912 25.3818 10.5937 25.3794 10.5964C25.3642 10.6144 25.3303 10.6425 25.2709 10.6637L25.2677 10.6649L1.1457 19.4739L1.14253 19.4751C1.09032 19.4945 1.0276 19.5049 0.961974 19.5018C0.896274 19.4988 0.838131 19.4827 0.793505 19.4606C0.7487 19.4385 0.726647 19.4149 0.718187 19.4028C0.716447 19.4003 0.715325 19.3984 0.714633 19.3971V12.477C0.716776 12.4729 0.723747 12.4617 0.74125 12.4469C0.780433 12.4138 0.854723 12.3788 0.954992 12.3726L0.9568 12.3725L20.2167 11.1235L20.2328 10.1269L0.940824 8.24792L0.939222 8.24776C0.842577 8.23867 0.773511 8.20332 0.738033 8.17191C0.722893 8.1585 0.716674 8.1485 0.714633 8.14462V0.605564H0.714668L0.714664 0.605187C0.715436 0.603725 0.71672 0.601547 0.71876 0.598705C0.728148 0.585628 0.752159 0.560994 0.799929 0.538605C0.847466 0.516325 0.908554 0.501252 0.976238 0.500074C1.04389 0.498896 1.10678 0.511809 1.15728 0.533144L1.15727 0.533156L1.16064 0.534552L25.2814 10.5186ZM0.214633 12.4736V19.3976V12.4736ZM0.214633 0.605564V8.14556C0.213266 8.29297 0.2816 8.43561 0.406597 8.54627C0.531595 8.65694 0.704509 8.72788 0.892354 8.74556L0.214633 0.605564Z" fill="#6855FF" stroke="#6855FF"/>
</svg>
