<svg width="33" height="33" viewBox="0 0 33 33" fill="none" xmlns="http://www.w3.org/2000/svg">
<path d="M13.7269 4.38173C14.3895 1.65034 18.2751 1.65034 18.9377 4.38173C19.0371 4.79206 19.232 5.17312 19.5065 5.49389C19.781 5.81466 20.1274 6.06607 20.5175 6.22767C20.9075 6.38927 21.3302 6.45649 21.7512 6.42385C22.1721 6.39121 22.5794 6.25965 22.9399 6.03985C25.34 4.57772 28.0885 7.32467 26.6263 9.7263C26.4068 10.0866 26.2755 10.4937 26.2429 10.9143C26.2104 11.335 26.2775 11.7574 26.4389 12.1472C26.6003 12.537 26.8515 12.8832 27.1719 13.1577C27.4923 13.4322 27.8729 13.6272 28.2829 13.7269C31.0143 14.3896 31.0143 18.2751 28.2829 18.9377C27.8726 19.0372 27.4915 19.2321 27.1707 19.5066C26.85 19.7811 26.5986 20.1275 26.437 20.5175C26.2754 20.9076 26.2081 21.3303 26.2408 21.7512C26.2734 22.1722 26.405 22.5795 26.6248 22.9399C28.0869 25.34 25.34 28.0885 22.9383 26.6264C22.578 26.4069 22.171 26.2755 21.7503 26.243C21.3297 26.2104 20.9073 26.2776 20.5174 26.439C20.1276 26.6004 19.7814 26.8515 19.5069 27.1719C19.2324 27.4923 19.0374 27.873 18.9377 28.283C18.2751 31.0143 14.3895 31.0143 13.7269 28.283C13.6275 27.8726 13.4326 27.4916 13.158 27.1708C12.8835 26.85 12.5371 26.5986 12.1471 26.437C11.757 26.2754 11.3343 26.2082 10.9134 26.2408C10.4924 26.2735 10.0852 26.405 9.72468 26.6248C7.3246 28.087 4.5761 25.34 6.03824 22.9384C6.25772 22.5781 6.38907 22.171 6.42163 21.7504C6.4542 21.3297 6.38704 20.9073 6.22563 20.5175C6.06422 20.1277 5.8131 19.7815 5.4927 19.507C5.17229 19.2325 4.79164 19.0374 4.38167 18.9377C1.65028 18.2751 1.65028 14.3896 4.38167 13.7269C4.792 13.6275 5.17306 13.4326 5.49383 13.1581C5.81459 12.8836 6.06601 12.5372 6.22761 12.1471C6.38921 11.7571 6.45643 11.3344 6.42379 10.9134C6.39115 10.4925 6.25958 10.0852 6.03979 9.72474C4.57766 7.32467 7.3246 4.57617 9.72624 6.0383C11.2755 6.98402 13.2976 6.14718 13.7269 4.38173Z" stroke="black" stroke-width="3.06231" stroke-linecap="round" stroke-linejoin="round"/>
<path d="M20.9987 16.3324C20.9987 17.57 20.507 18.7569 19.6319 19.632C18.7568 20.5071 17.5699 20.9988 16.3323 20.9988C15.0947 20.9988 13.9078 20.5071 13.0326 19.632C12.1575 18.7569 11.6659 17.57 11.6659 16.3324C11.6659 15.0948 12.1575 13.9079 13.0326 13.0327C13.9078 12.1576 15.0947 11.666 16.3323 11.666C17.5699 11.666 18.7568 12.1576 19.6319 13.0327C20.507 13.9079 20.9987 15.0948 20.9987 16.3324V16.3324Z" stroke="black" stroke-width="4.08309" stroke-linecap="round" stroke-linejoin="round"/>
</svg>
