<svg width="19" height="20" viewBox="0 0 19 20" fill="none" xmlns="http://www.w3.org/2000/svg">
<path d="M13.4844 0.625122C12.9102 0.625122 12.3242 0.847778 11.8906 1.28137C11.6035 1.56848 11.4248 1.92004 11.3281 2.28918C11.1729 2.25696 11.0205 2.21887 10.8594 2.21887C10.2852 2.21887 9.69922 2.41809 9.26562 2.85168C8.39844 3.71887 8.39844 5.14856 9.26562 6.01575L9.89844 6.64856L6.14844 10.3986L5.51562 9.76575C5.08203 9.33215 4.51953 9.1095 3.94531 9.1095C3.37109 9.1095 2.78516 9.33215 2.35156 9.76575C1.79199 10.3282 1.60156 11.1251 1.76562 11.8517C1.40527 11.9454 1.06543 12.1066 0.78125 12.3907C-0.0859375 13.2579 -0.0859375 14.6876 0.78125 15.5548L0.804688 15.5782L1.8125 16.6095L1.29688 17.1251L2.375 18.2032L2.89062 17.6876L3.94531 18.7189C4.8125 19.5861 6.24219 19.5861 7.10938 18.7189C7.39062 18.4376 7.57227 18.0948 7.67188 17.7345C8.39258 17.8898 9.17773 17.7052 9.73438 17.1486C10.6016 16.2814 10.6016 14.8517 9.73438 13.9845L9.10156 13.3517L12.8516 9.60168L13.4844 10.2345C14.3516 11.1017 15.7812 11.1017 16.6484 10.2345C17.2021 9.67786 17.3896 8.8927 17.2344 8.172C17.5977 8.07239 17.9346 7.89368 18.2188 7.6095C19.0859 6.74231 19.0859 5.31262 18.2188 4.44543L17.1875 3.39075L17.7031 2.87512L16.625 1.797L16.1094 2.31262L15.0547 1.28137C14.6211 0.847778 14.0586 0.625122 13.4844 0.625122ZM13.4844 2.12512C13.6719 2.12512 13.8535 2.18958 14 2.33606L17.1641 5.50012C17.46 5.79602 17.457 6.2384 17.1641 6.53137C16.8711 6.82434 16.4053 6.82434 16.1094 6.53137L12.9688 3.39075C12.6758 3.09778 12.6758 2.63196 12.9688 2.33606C13.1152 2.18958 13.2969 2.12512 13.4844 2.12512ZM10.8594 3.69543C11.0469 3.69543 11.2285 3.78333 11.375 3.92981L15.5703 8.12512C15.8633 8.42102 15.8633 8.88391 15.5703 9.17981C15.2773 9.47278 14.835 9.44934 14.5391 9.15637H14.5156L10.3203 4.96106C10.0273 4.66809 10.0508 4.22571 10.3438 3.92981C10.4873 3.79211 10.6777 3.69543 10.8594 3.69543ZM10.9531 7.70325L11.7969 8.547L8.04688 12.297L7.20312 11.4532L10.9531 7.70325ZM3.94531 10.6095C4.13281 10.6095 4.31445 10.6974 4.46094 10.8439H4.48438L8.67969 15.0392C8.97266 15.3322 8.94922 15.7745 8.65625 16.0704C8.36328 16.3488 7.91504 16.3605 7.625 16.0704L7.10938 15.5548L7.01562 15.4845L3.94531 12.3907L3.42969 11.8751C3.13672 11.5792 3.13672 11.1163 3.42969 10.8204C3.57617 10.674 3.75781 10.6095 3.94531 10.6095ZM2.35156 13.2345C2.53906 13.2345 2.74414 13.3224 2.89062 13.4689L6.03125 16.6095C6.32422 16.9025 6.32422 17.3683 6.03125 17.6642C5.73828 17.9572 5.2959 17.9572 5 17.6642L1.83594 14.5001C1.54004 14.2042 1.54297 13.7618 1.83594 13.4689C1.98242 13.3224 2.16406 13.2345 2.35156 13.2345Z" fill="#6855FF"/>
</svg>
