<svg width="19" height="20" viewBox="0 0 19 20" fill="none" xmlns="http://www.w3.org/2000/svg">
<path d="M13.4844 0.625C12.9102 0.625 12.3242 0.847656 11.8906 1.28125C11.6035 1.56836 11.4248 1.91992 11.3281 2.28906C11.1729 2.25684 11.0205 2.21875 10.8594 2.21875C10.2852 2.21875 9.69922 2.41797 9.26562 2.85156C8.39844 3.71875 8.39844 5.14844 9.26562 6.01562L9.89844 6.64844L6.14844 10.3984L5.51562 9.76562C5.08203 9.33203 4.51953 9.10938 3.94531 9.10938C3.37109 9.10938 2.78516 9.33203 2.35156 9.76562C1.79199 10.3281 1.60156 11.125 1.76562 11.8516C1.40527 11.9453 1.06543 12.1064 0.78125 12.3906C-0.0859375 13.2578 -0.0859375 14.6875 0.78125 15.5547L0.804688 15.5781L1.8125 16.6094L1.29688 17.125L2.375 18.2031L2.89062 17.6875L3.94531 18.7188C4.8125 19.5859 6.24219 19.5859 7.10938 18.7188C7.39062 18.4375 7.57227 18.0947 7.67188 17.7344C8.39258 17.8896 9.17773 17.7051 9.73438 17.1484C10.6016 16.2812 10.6016 14.8516 9.73438 13.9844L9.10156 13.3516L12.8516 9.60156L13.4844 10.2344C14.3516 11.1016 15.7812 11.1016 16.6484 10.2344C17.2021 9.67773 17.3896 8.89258 17.2344 8.17188C17.5977 8.07227 17.9346 7.89355 18.2188 7.60938C19.0859 6.74219 19.0859 5.3125 18.2188 4.44531L17.1875 3.39062L17.7031 2.875L16.625 1.79688L16.1094 2.3125L15.0547 1.28125C14.6211 0.847656 14.0586 0.625 13.4844 0.625ZM13.4844 2.125C13.6719 2.125 13.8535 2.18945 14 2.33594L17.1641 5.5C17.46 5.7959 17.457 6.23828 17.1641 6.53125C16.8711 6.82422 16.4053 6.82422 16.1094 6.53125L12.9688 3.39062C12.6758 3.09766 12.6758 2.63184 12.9688 2.33594C13.1152 2.18945 13.2969 2.125 13.4844 2.125ZM10.8594 3.69531C11.0469 3.69531 11.2285 3.7832 11.375 3.92969L15.5703 8.125C15.8633 8.4209 15.8633 8.88379 15.5703 9.17969C15.2773 9.47266 14.835 9.44922 14.5391 9.15625H14.5156L10.3203 4.96094C10.0273 4.66797 10.0508 4.22559 10.3438 3.92969C10.4873 3.79199 10.6777 3.69531 10.8594 3.69531ZM10.9531 7.70312L11.7969 8.54688L8.04688 12.2969L7.20312 11.4531L10.9531 7.70312ZM3.94531 10.6094C4.13281 10.6094 4.31445 10.6973 4.46094 10.8438H4.48438L8.67969 15.0391C8.97266 15.332 8.94922 15.7744 8.65625 16.0703C8.36328 16.3486 7.91504 16.3604 7.625 16.0703L7.10938 15.5547L7.01562 15.4844L3.94531 12.3906L3.42969 11.875C3.13672 11.5791 3.13672 11.1162 3.42969 10.8203C3.57617 10.6738 3.75781 10.6094 3.94531 10.6094ZM2.35156 13.2344C2.53906 13.2344 2.74414 13.3223 2.89062 13.4688L6.03125 16.6094C6.32422 16.9023 6.32422 17.3682 6.03125 17.6641C5.73828 17.957 5.2959 17.957 5 17.6641L1.83594 14.5C1.54004 14.2041 1.54297 13.7617 1.83594 13.4688C1.98242 13.3223 2.16406 13.2344 2.35156 13.2344Z" fill="#CBD5E1"/>
</svg>
